<?xml version="1.0" standalone="no"?>
<!DOCTYPE svg PUBLIC "-//W3C//DTD SVG 20010904//EN"
 "http://www.w3.org/TR/2001/REC-SVG-20010904/DTD/svg10.dtd">
<svg version="1.0" xmlns="http://www.w3.org/2000/svg"
 width="500.000000pt" height="500.000000pt" viewBox="0 0 500.000000 500.000000"
 preserveAspectRatio="xMidYMid meet">

<g transform="translate(0.000000,500.000000) scale(0.100000,-0.100000)"
fill="#000000" stroke="none">
<path d="M1960 3665 c0 -88 17 -115 73 -115 53 0 71 28 75 116 4 62 2 74 -11
74 -13 0 -17 -15 -19 -77 -3 -74 -4 -78 -30 -87 -22 -8 -32 -6 -48 9 -16 15
-20 30 -20 87 0 39 -4 68 -10 68 -6 0 -10 -32 -10 -75z"/>
<path d="M2150 3645 c0 -111 18 -130 22 -22 l3 72 55 -72 c30 -40 58 -73 62
-73 5 0 8 43 8 95 0 57 -4 95 -10 95 -6 0 -10 -31 -10 -72 l0 -71 -56 71 c-30
40 -60 72 -65 72 -5 0 -9 -43 -9 -95z"/>
<path d="M2357 3733 c-4 -3 -7 -46 -7 -95 0 -72 3 -88 15 -88 12 0 15 17 15
95 0 87 -5 107 -23 88z"/>
<path d="M2410 3730 c0 -5 14 -10 30 -10 l30 0 0 -85 c0 -50 4 -85 10 -85 6 0
10 35 10 85 l0 85 30 0 c17 0 30 5 30 10 0 6 -30 10 -70 10 -40 0 -70 -4 -70
-10z"/>
<path d="M2580 3645 l0 -95 60 0 c33 0 60 4 60 10 0 6 -20 10 -45 10 -45 0
-45 0 -45 35 0 33 2 35 35 35 19 0 35 5 35 10 0 6 -16 10 -35 10 -32 0 -35 2
-35 30 0 29 2 30 45 30 25 0 45 5 45 10 0 6 -27 10 -60 10 l-60 0 0 -95z"/>
<path d="M2737 3733 c-4 -3 -7 -46 -7 -95 l0 -88 54 0 c65 0 102 25 112 74 7
42 -17 93 -52 106 -29 11 -97 13 -107 3z m113 -33 c12 -12 20 -33 20 -55 0
-22 -8 -43 -20 -55 -12 -12 -33 -20 -55 -20 l-35 0 0 75 0 75 35 0 c22 0 43
-8 55 -20z"/>
<path d="M2388 3318 c-50 -17 -72 -70 -76 -185 -4 -93 10 -252 24 -274 16 -26
19 8 8 78 -16 98 -17 240 -3 284 25 73 77 98 128 63 48 -34 90 -176 107 -357
7 -79 24 -107 24 -39 0 136 -51 341 -98 393 -32 35 -77 49 -114 37z"/>
<path d="M2270 3272 c-34 -35 -52 -112 -49 -212 l2 -70 -71 -35 c-44 -22 -86
-53 -110 -80 -37 -42 -194 -342 -207 -397 -6 -23 5 -38 109 -142 64 -64 123
-116 130 -116 8 0 23 14 34 31 l19 31 6 -39 c3 -21 22 -173 43 -338 20 -165
39 -303 43 -307 6 -7 751 178 762 190 4 4 -10 134 -30 290 -20 155 -35 282
-33 282 1 0 16 -10 33 -22 l31 -23 39 45 c21 25 64 75 95 112 l56 68 -40 47
c-22 27 -96 103 -164 170 -113 112 -133 126 -219 167 -52 24 -104 46 -117 49
-23 5 -23 4 -17 -36 4 -23 11 -49 16 -58 10 -20 -16 -59 -40 -59 -32 0 -42 23
-35 84 l7 57 -26 -6 c-24 -6 -25 -5 -37 67 -7 40 -21 101 -31 135 -20 64 -63
128 -80 117 -5 -3 1 -19 15 -34 30 -37 54 -107 71 -211 l13 -81 -64 4 c-72 4
-78 -4 -48 -67 18 -39 16 -64 -8 -79 -27 -16 -53 4 -55 45 -9 122 -14 139 -38
145 -31 8 -40 51 -30 137 8 75 30 125 62 140 26 12 31 27 7 27 -8 0 -28 -13
-44 -28z m498 -876 c20 -12 15 -39 -5 -31 -41 17 -84 22 -122 15 -50 -9 -71
-25 -71 -56 0 -50 96 -79 164 -50 45 19 52 16 37 -12 -25 -47 -175 -35 -226
18 -24 26 -27 34 -19 57 12 36 50 62 104 71 46 8 116 2 138 -12z m-488 -20 c0
-71 10 -95 45 -105 35 -9 83 -4 103 12 7 5 12 33 12 69 0 56 1 59 23 56 20 -3
22 -7 20 -68 -2 -51 -7 -69 -23 -82 -29 -24 -104 -33 -151 -19 -52 16 -69 43
-69 113 0 51 2 58 20 58 16 0 20 -7 20 -34z"/>
<path d="M1869 1351 c-38 -39 -39 -87 -3 -130 19 -23 34 -31 59 -31 43 0 65 9
65 25 0 11 -6 11 -30 2 -48 -18 -84 6 -88 60 -5 66 44 102 99 73 12 -7 19 -7
19 -1 0 6 -9 15 -19 21 -35 18 -71 11 -102 -19z"/>
<path d="M2030 1285 l0 -95 50 0 c28 0 50 5 50 10 0 6 -18 10 -40 10 l-40 0 0
85 c0 50 -4 85 -10 85 -6 0 -10 -38 -10 -95z"/>
<path d="M2179 1351 c-21 -22 -29 -39 -29 -66 0 -104 152 -132 178 -32 27 101
-77 170 -149 98z m108 -13 c45 -42 18 -128 -40 -128 -43 0 -67 27 -67 75 0 34
5 47 22 59 31 22 58 20 85 -6z"/>
<path d="M2350 1371 c0 -6 15 -11 33 -13 l32 -3 3 -82 c4 -110 22 -107 22 2
l0 85 30 0 c17 0 30 5 30 10 0 6 -32 10 -75 10 -41 0 -75 -4 -75 -9z"/>
<path d="M2530 1285 c0 -95 16 -133 22 -52 l3 42 50 0 50 0 3 -42 c6 -81 22
-43 22 52 0 95 -16 133 -22 53 l-3 -43 -50 0 -50 0 -3 43 c-6 80 -22 42 -22
-53z"/>
<path d="M2730 1285 c0 -57 4 -95 10 -95 6 0 10 38 10 95 0 57 -4 95 -10 95
-6 0 -10 -38 -10 -95z"/>
<path d="M2807 1373 c-4 -3 -7 -46 -7 -95 0 -72 3 -88 15 -88 12 0 15 15 15
71 l0 71 53 -68 c28 -37 58 -69 65 -72 9 -3 12 20 12 93 0 73 -3 96 -12 93 -8
-3 -15 -30 -18 -68 l-5 -64 -53 67 c-56 71 -55 71 -65 60z"/>
<path d="M3023 1356 c-23 -20 -28 -32 -28 -71 0 -39 5 -51 28 -71 18 -15 41
-24 63 -24 54 0 74 15 74 55 0 32 -2 35 -30 35 -16 0 -30 -4 -30 -10 0 -5 7
-10 16 -10 10 0 14 -7 12 -22 -4 -32 -59 -37 -87 -9 -28 28 -28 84 -1 111 22
22 46 25 84 10 31 -11 36 4 7 20 -33 17 -78 11 -108 -14z"/>
</g>
</svg>
